<?xml version="1.0" encoding="UTF-8" standalone="no"?>
<!-- Created with Inkscape (http://www.inkscape.org/) -->

<svg
   width="210mm"
   height="297mm"
   viewBox="0 0 210 297"
   version="1.1"
   id="svg1"
   xml:space="preserve"
   inkscape:version="1.3.2 (091e20e, 2023-11-25)"
   sodipodi:docname="beaver.svg"
   xmlns:inkscape="http://www.inkscape.org/namespaces/inkscape"
   xmlns:sodipodi="http://sodipodi.sourceforge.net/DTD/sodipodi-0.dtd"
   xmlns="http://www.w3.org/2000/svg"
   xmlns:svg="http://www.w3.org/2000/svg"><sodipodi:namedview
     id="namedview1"
     pagecolor="#ffffff"
     bordercolor="#000000"
     borderopacity="0.25"
     inkscape:showpageshadow="2"
     inkscape:pageopacity="0.0"
     inkscape:pagecheckerboard="0"
     inkscape:deskcolor="#d1d1d1"
     inkscape:document-units="mm"
     inkscape:zoom="2.1959772"
     inkscape:cx="378.8746"
     inkscape:cy="499.32212"
     inkscape:window-width="1392"
     inkscape:window-height="1052"
     inkscape:window-x="0"
     inkscape:window-y="0"
     inkscape:window-maximized="0"
     inkscape:current-layer="layer1" /><defs
     id="defs1" /><g
     inkscape:label="Layer 1"
     inkscape:groupmode="layer"
     id="layer1"><path
       style="fill:#000000;stroke-width:0.173095"
       d="m 95.331429,125.54621 c 0.482182,-1.88879 -3.200949,0.70386 -1.516811,-0.9838 0.142396,-1.00488 -0.208684,-2.46307 1.366964,-2.15712 1.57008,-0.14232 3.473097,-1.1209 4.812443,-0.82753 0.614295,1.17653 2.972115,1.98077 2.544805,3.31903 -0.62024,-0.0176 -1.80244,0.9587 -1.6758,0.80885 0.0137,-1.51255 -2.182369,-2.16626 -2.425999,-0.72951 -0.112044,-0.90328 -1.10609,-0.64013 -0.301589,-1.25147 0.135073,-1.81686 -1.536224,-0.59442 -1.776728,0.38069 -0.33274,0.42309 -0.466267,1.32483 -1.027285,1.44086 z m 11.388451,0.25417 c -0.0686,-0.58449 -1.62708,-2.343 -1.5039,-0.92448 -1.52489,-0.89661 -3.33772,-2.16357 -4.21227,-3.49653 1.14125,-1.24044 3.16845,-0.7864 4.61215,-1.55217 0.74078,-0.37308 2.61099,0.73955 2.40866,0.33941 -0.78506,-1.47566 1.46129,-1.39082 1.79067,-0.25085 0.80229,-0.15043 2.56569,0.27192 1.63082,1.36055 0.18738,0.59384 2.38735,1.96578 0.8209,1.11361 -0.66495,-0.84528 -2.28008,-0.61119 -1.97944,0.51041 -0.60474,-0.40286 -1.61345,-1.82495 -1.38566,-0.20281 -0.8169,0.34433 -2.4759,-1.97285 -2.65151,-0.39225 0.38557,0.91019 2.46516,0.77596 1.58697,1.74561 0.20448,0.55857 1.28744,2.12895 0.074,1.13592 -0.5752,-0.4137 -1.75504,-0.41184 -1.19138,0.61358 z m -17.808375,-1.14721 c 0.823495,-1.96502 2.712224,-3.46584 4.866192,-3.60775 1.708083,-0.36054 3.418301,-0.71215 5.118088,-1.11057 0.778715,1.8499 -2.407522,1.17153 -3.420641,1.85697 -1.692191,0.39636 -3.537824,0.64639 -4.901965,1.82213 0.664403,0.68226 -1.231703,1.0424 -1.661674,1.03922 z m -2.083134,-0.0655 c 0.48858,-0.89854 0.380569,-2.03278 1.549061,-2.43575 0.504005,-0.75253 3.085441,-1.52055 1.729941,0.0355 -0.909066,1.03543 -2.297836,1.45126 -3.279002,2.40019 z m 0.102408,-3.58001 c 0.995968,-0.16155 2.950325,-1.22829 3.03311,-1.58772 -1.187709,0.21709 -0.975902,-1.3788 -1.54472,-1.9947 -0.318272,-1.25498 -0.660398,-1.88162 -1.014607,-2.73891 0.210661,-0.39754 -0.266109,-1.1081 -0.439704,-0.3473 0.191477,-1.77422 0.47357,-3.53335 1.301885,-5.10332 -0.229877,-1.37466 1.12303,-2.80555 2.020735,-3.88681 1.439199,-1.33803 3.224029,-2.70677 5.292906,-2.61173 1.459743,-0.36666 4.078843,-1.10054 4.221385,-2.71388 -0.511914,-0.261938 1.218971,-1.040696 0.05573,-0.949043 1.530551,-0.444611 2.139791,-3.020052 4.061881,-1.9984 0.99076,-1.630689 2.94785,-0.526385 4.46863,-1.285309 2.18001,-0.121706 4.26591,0.838752 6.2266,1.662251 0.40163,0.582472 -0.1506,2.625101 0.2187,2.195685 -0.82241,0.03511 1.18112,1.982656 -0.27401,0.480136 -0.18056,0.55521 1.02679,2.76208 0.23686,1.11926 -1.25298,-1.281073 0.39137,2.50164 -0.27688,0.72113 0.0307,-1.28102 -1.30826,-0.78818 -0.89473,0.25612 0.13618,1.54275 0.0628,-1.69495 -0.72654,-0.15459 -0.78833,1.38399 -2.6804,1.38418 -3.50768,2.73981 -0.3926,1.33944 0.8542,2.79314 -0.0216,4.16187 -0.37871,0.66898 0.38912,1.63827 -0.14976,1.88968 0.51046,1.37038 0.0772,2.87809 0.14092,4.26388 0.47667,1.24752 1.82826,0.30247 2.22111,-0.35225 0.34359,1.84983 1.20828,-0.84429 2.31777,-0.2688 0.81059,-0.16311 0.9119,-0.59105 1.13037,0.22765 0.77826,-0.21437 1.78964,-0.10644 0.45805,0.16776 -1.8059,0.47119 -3.56912,1.08674 -5.35058,1.63976 -1.94136,-1.11507 -0.78212,-3.65437 -1.30325,-5.4222 0.0976,-1.23031 0.34429,-3.71462 -0.28158,-4.11014 0.16365,0.7448 -0.40939,2.79856 -0.21839,2.56067 -0.0461,-0.73959 -0.9883,-2.15299 -0.39254,-0.5982 -0.39936,-0.35596 -1.11506,-1.13764 -0.45345,-0.0936 0.40902,0.56018 1.12529,2.6993 0.30967,1.10557 -0.31545,0.63744 -0.45284,-0.74035 -0.74272,0.16397 -0.26246,-0.61986 -1.01589,-2.0109 -0.47879,-0.52049 0.86079,1.6017 2.15707,3.14698 2.09997,5.06628 -0.35572,-1.17816 -0.96661,-3.31117 -1.70281,-3.63182 0.70241,0.78344 0.63508,2.29891 -0.0476,2.43942 0.17926,1.2708 0.25434,2.49264 -0.29942,3.73844 -0.88908,1.92082 -2.90687,0.49324 -4.3033,0.8694 0.30908,-0.80941 -0.63191,-2.90532 -0.98664,-2.06957 0.37943,1.38084 -1.37883,2.44261 -2.056679,3.42747 -1.221441,0.81255 -2.806806,-1.29081 -3.535845,-0.6642 0.653168,0.2102 2.373187,1.04372 0.678475,0.96128 -1.722022,-0.10092 -3.516527,0.41669 -5.177327,-0.24362 -0.657083,-0.24334 -1.279275,0.78735 -0.300157,0.33848 0.706905,0.28412 2.682803,0.3189 0.844419,0.70552 -1.484227,0.38314 -3.769058,0.65292 -4.857831,0.44506 z m 11.301757,-1.65975 c -0.309324,-0.67137 -0.743501,-1.78292 0.02264,-0.58641 0.93737,0.66515 0.0085,-0.76442 0.833343,-0.13271 1.177911,0.41739 -0.925615,-1.27664 -1.474541,-1.13832 -0.951874,-0.37762 -1.508517,0.99926 -0.309491,0.97197 0.358926,0.23999 0.615542,0.59394 0.928045,0.88547 z m 8.190514,-2.32522 c -0.14712,-1.93522 -2.98511,-2.18083 -2.99939,-4.1762 -1.13089,-0.58968 -1.28633,-1.90197 -2.36939,-1.86494 -0.26297,-0.4732 0.38722,-1.00345 -0.21122,-1.46124 0.45156,-1.00286 1.00206,-0.015 0.93657,0.35646 0.20289,-1.02211 1.37284,-3.1106 0.83841,-3.42925 -0.49989,0.88041 -1.77801,3.10727 -2.10009,2.89849 0.41043,-1.25439 1.78039,-3.27733 1.66182,-4.02164 -0.99168,0.48475 -1.74327,2.95988 -2.343299,2.77156 0.0944,-0.94131 1.560949,-2.4425 1.239949,-2.87512 -0.53086,0.55156 -1.20627,0.91193 -0.4055,0.0268 0.24286,-0.60799 2.12064,-2.07307 1.71175,-0.76979 1.18097,-0.5079 2.20645,-2.93521 3.11284,-2.285 0.47905,-0.19881 -2.30795,1.40373 -0.33769,1.05738 0.80982,-0.19234 1.85509,-0.80994 0.74779,0.28717 0.74637,-0.0656 2.15927,-1.34845 2.16935,-1.70984 -1.22588,0.81763 0.40832,-0.91219 0.10764,-0.21062 0.7923,-0.71897 1.75171,-1.31453 1.32195,-0.75125 0.97415,-0.4376 -1.65584,1.12501 -1.85298,1.75169 1.10301,-0.20317 1.72943,-1.81506 2.82058,-2.09172 -0.99664,0.93428 -3.31519,2.68442 -3.24073,3.32218 1.1376,-1.03706 2.10133,-2.27503 3.3555,-3.17611 -0.66434,0.72785 -1.86486,1.47037 -1.96755,2.415 0.58006,-0.86082 0.11544,0.35351 0.70079,-0.48798 0.43066,-0.52991 1.35416,-1.76274 1.46684,-1.85899 -0.55177,0.32103 -1.20966,2.29102 -0.36079,0.79382 0.29087,-0.43926 -0.23898,0.61112 0.26747,-0.16648 0.57437,-0.84594 0.10332,0.84892 0.71668,-0.14641 -0.42466,0.66244 0.90204,-5.9e-4 1.18002,0.0222 1.23216,-0.69282 0.43596,-2.032549 -0.70331,-2.156186 -0.4057,-0.911587 0.87513,-2.642608 -0.92635,-2.688698 -1.63878,-0.211085 -3.57257,-0.384118 -4.988,0.578304 -1.26064,1.202025 -2.83017,-0.208799 -4.03188,0.432639 -1.12944,0.590186 -0.11031,2.886831 0.51235,1.926245 0.36337,-0.795385 -1.35042,-1.429149 0.13895,-1.745875 0.84458,0.453756 1.23302,1.840676 2.61377,1.371845 1.03631,-0.191113 2.25451,-0.597165 3.046,-1.151775 -0.53999,0.119412 -1.96408,0.325994 -0.65214,-0.20727 1.32374,-0.379566 2.21742,2.037189 0.32073,1.176648 -0.66836,-0.434161 -0.10812,0.546502 -0.99459,0.101652 -1.62577,-0.186853 -3.4162,0.417556 -4.34391,1.822471 -0.5329,0.44929 -2.918401,1.76785 -1.17329,0.52865 1.0254,-1.13898 -2.150009,1.18532 -0.8443,-0.0883 0.95487,-1.07902 -1.251297,-0.13908 -0.699792,0.2649 -1.595233,1.52165 -3.121512,3.17245 -4.137877,5.14753 0.342812,-0.44072 2.335014,-1.07761 1.0805,-0.14973 -1.106256,0.94656 1.029612,-0.43947 0.148203,0.64288 0.564879,0.47535 -1.018275,2.2301 0.193629,1.07012 1.518846,-1.13561 -0.961241,2.93677 0.702769,1.1667 0.234742,0.35064 -0.580568,2.30602 0.279746,1.02332 0.327761,0.46663 0.182887,1.60063 0.412822,0.40711 0.528186,-1.62341 0.623356,2.92067 0.930863,0.97149 0.178634,0.75507 0.377039,1.34455 0.563017,0.72608 0.11132,0.23567 0.23508,1.24192 0.31777,0.41348 -0.0222,0.90696 0.53217,-0.24706 0.52351,0.56331 0.0144,-0.92386 0.44748,0.82122 0.39787,-0.11976 0.29851,1.35512 0.12683,-1.33951 0.598,0.19932 0.24875,0.79347 0.25097,0.64441 0.26776,-0.0388 0.45831,0.0942 0.90925,1.45248 0.58213,0.33005 0.99436,0.50665 0.65166,2.67508 2.0115,2.27428 0.45076,0.4909 1.01247,0.88948 1.68628,0.98721 z m -6.23589,-12.97228 c 1.10936,-0.60595 2.74114,-0.87907 2.95448,-2.25693 1.17673,-0.38982 -0.0342,0.35208 0.14876,0.35211 0.45094,-0.2189 1.86636,-0.64612 0.7344,0.10452 -1.12028,0.88451 -2.47944,1.40614 -3.83764,1.8003 z m -0.401595,-1.06616 c 1.006315,-0.78266 2.605955,-0.79974 3.097745,-2.08831 1.18428,-0.54719 -0.93427,0.88957 0.57046,0.21305 0.58424,0.0758 -1.52363,1.10726 -2.06432,1.32922 -0.52182,0.21714 -1.05874,0.39723 -1.603885,0.54604 z m 7.522105,-1.39538 c 0.53118,-0.46547 2.17686,-1.807048 0.62577,-0.74321 0.5259,-0.66907 2.62943,-1.988563 2.04474,-0.72036 -0.31501,0.3407 -1.53342,0.70569 -0.65334,0.0657 -0.75674,0.33668 -1.31426,0.97585 -2.01717,1.39787 z m -10.069329,14.81114 c -1.248277,-1.32209 -1.506129,-3.55381 -3.271015,-4.35084 -1.280843,-0.0386 0.164332,-1.95539 -0.800189,-1.03283 0.367651,-0.36558 1.560708,-2.33645 0.327072,-1.30394 0.317989,-1.0201 1.390079,-1.87493 1.375771,-2.92923 -0.283612,0.61336 -1.53789,1.3856 -0.75013,0.18969 0.332208,-1.01077 1.955304,-2.96044 1.736387,-3.19059 -0.547295,0.41234 -2.43624,1.97807 -1.10754,0.65025 0.58311,-0.40483 1.249174,-1.99851 -0.07712,-1.24797 -1.489759,0.41661 -3.844765,2.3487 -4.25713,2.73879 1.821703,-0.50719 -0.727404,0.82311 -0.386783,1.45806 0.499844,-0.28756 1.981779,-1.75767 0.995301,-0.42043 -0.506998,0.5122 -1.862724,2.2762 -0.364452,1.19936 -0.433411,0.53569 -1.414701,1.53523 -0.149584,0.56412 0.595137,-0.57618 1.121468,-0.43126 0.300633,0.13654 -1.299912,1.39089 2.38263,-1.58786 1.063266,0.24999 -0.314137,0.39787 -1.513411,1.60438 -0.316786,0.87569 1.19951,-0.97807 0.617602,0.17676 0.154456,0.76648 -0.321541,0.44326 -0.804002,2.24799 0.0061,1.0272 0.794705,-0.95907 -0.447869,1.6832 0.389275,0.47806 -0.148176,0.57062 -0.218796,2.8358 0.193726,1.08021 0.557527,-1.25808 0.225577,1.92843 0.70115,0.13083 0.548561,-0.7553 0.04798,2.60622 0.526696,0.61583 0.252595,0.27514 0.304751,1.63174 0.393984,0.31426 0.306852,-0.54564 0.876332,2.04782 0.79928,0.36296 0.324977,0.55624 1.281694,1.77539 0.757933,0.34645 0.160994,-1.20696 1.411082,1.73007 1.759719,1.29106 z m 8.712409,-1.15874 c 0.17049,-1.10312 -1.25781,-1.65821 -1.09855,-2.2965 -0.30116,0.22956 -0.72332,-0.22226 -0.59643,0.61285 -0.0188,0.99234 0.85251,1.47629 1.69498,1.68365 z m 7.7667,-16.264525 c 0.53022,0.511276 1.20291,-1.108945 0.38367,-0.400658 -0.60922,-0.574541 -2.45887,-0.420906 -0.90113,0.297552 0.16633,0.05874 0.34086,0.0965 0.51746,0.103104 z m -13.36578,21.529925 c -0.795173,-1.77489 2.23534,-1.0476 3.14007,-1.73202 1.01517,-0.2136 1.77871,0.92902 0.29952,0.90858 -1.13569,0.31509 -2.26518,0.68037 -3.43959,0.82344 z m 14.50745,-1.18558 c -0.53627,-0.78234 -3.18824,-0.0146 -2.52277,-1.23611 0.75264,-0.22756 2.44271,-0.8214 2.65384,-0.6801 -1.8463,1.14518 3.07309,1.88886 1.12358,1.66169 -0.55642,-0.24657 -0.95851,0.45156 -1.25465,0.25452 z m -8.3751,-0.30345 c -1.29351,-1.12425 2.30311,-0.54144 0.72737,-1.57903 -1.24247,-0.32088 0.89683,-2.35128 1.90063,-1.48307 0.92181,0.33095 0.0602,1.84531 1.34022,1.23261 1.68411,-0.65416 3.4224,-0.89618 5.21259,-0.9423 0.77564,-0.12392 1.88439,-0.13404 0.51728,0.14022 -3.2619,0.87554 -6.483,1.90105 -9.7661,2.6977 l 0.0613,-0.0595 1e-4,-1.2e-4 3.2e-4,-3e-4 z m 1.68864,-1.7781 c 1.52847,-0.73619 -1.39049,-1.66178 -0.8993,-0.21539 0.41178,-0.84271 0.46567,0.14226 0.8993,0.21539 z"
       id="path1" /></g></svg>
