<?xml version="1.0" encoding="UTF-8" standalone="no"?>
<!-- open image from wikipedia -->

<?xml version="1.0" encoding="UTF-8" standalone="no"?><svg
   width="600"
   height="1626.776"
   viewBox="0 0 4800 13014.208"
   version="1.1"
   id="svg2"
   sodipodi:docname="canadian_flag.svg"
   inkscape:version="1.4 (e7c3feb1, 2024-10-09)"
   xmlns:inkscape="http://www.inkscape.org/namespaces/inkscape"
   xmlns:sodipodi="http://sodipodi.sourceforge.net/DTD/sodipodi-0.dtd"
   xmlns="http://www.w3.org/2000/svg"
   xmlns:svg="http://www.w3.org/2000/svg"
   xmlns:rdf="http://www.w3.org/1999/02/22-rdf-syntax-ns#"
   xmlns:cc="http://creativecommons.org/ns#"
   xmlns:dc="http://purl.org/dc/elements/1.1/">
  <defs
     id="defs2" />
  <sodipodi:namedview
     id="namedview2"
     pagecolor="#ffffff"
     bordercolor="#000000"
     borderopacity="0.25"
     inkscape:showpageshadow="2"
     inkscape:pageopacity="0.0"
     inkscape:pagecheckerboard="0"
     inkscape:deskcolor="#d1d1d1"
     inkscape:zoom="0.6475"
     inkscape:cx="236.29344"
     inkscape:cy="767.56757"
     inkscape:window-width="1392"
     inkscape:window-height="1027"
     inkscape:window-x="0"
     inkscape:window-y="25"
     inkscape:window-maximized="0"
     inkscape:current-layer="svg2" />
  <title
     id="title1">Flag of Canada</title>
  <path
     fill="#ff0000"
     d="m 0,80 99,71.9884 H 4701 L 4800,80 v 3490.3475 l -99,-71.9884 H 99 l -99,71.9884 z"
     id="path1"
     sodipodi:nodetypes="ccccccccc"
     style="fill:#ffffff;fill-opacity:1;stroke-width:0.852735" />
  <path
     fill="#ff0000"
     d="m 0,8093.498 99,99.5096 h 4602 l 99,-99.5096 v 4824.71 l -99,-99.509 H 99 l -99,99.509 z"
     id="path1-0"
     sodipodi:nodetypes="ccccccccc"
     style="fill:#ffffff;fill-opacity:1;stroke-width:1.00257" />
  <path
     fill="#ffffff"
     d="m 0,3434.749 h 4800 v 4800 H 0 Z m 2490,4430 -45,-863 a 95,95 0 0 1 111,-98 l 859,151 -116,-320 a 65,65 0 0 1 20,-73 l 941,-762 -212,-99 a 65,65 0 0 1 -34,-79 l 186,-572 -542,115 a 65,65 0 0 1 -73,-38 l -105,-247 -423,454 a 65,65 0 0 1 -111,-57 l 204,-1052 -327,189 a 65,65 0 0 1 -91,-27 l -332,-652 -332,652 a 65,65 0 0 1 -91,27 l -327,-189 204,1052 a 65,65 0 0 1 -111,57 l -423,-454 -105,247 a 65,65 0 0 1 -73,38 l -542,-115 186,572 a 65,65 0 0 1 -34,79 l -212,99 941,762 a 65,65 0 0 1 20,73 l -116,320 859,-151 a 95,95 0 0 1 111,98 l -45,863 z"
     id="path2"
     style="stroke:#000000;stroke-opacity:1;stroke-width:7.4;stroke-dasharray:none" />
  <metadata
     id="metadata2">
    <rdf:RDF>
      <cc:Work
         rdf:about="">
        <dc:title>Flag of Canada</dc:title>
      </cc:Work>
    </rdf:RDF>
  </metadata>
</svg>
