<svg width="757" height="1520" viewBox="0 0 757 1520" class="keymap" xmlns="http://www.w3.org/2000/svg" xmlns:xlink="http://www.w3.org/1999/xlink">
<defs>/* start glyphs */
<svg id="mdi:apple-keyboard-command">
<svg xmlns="http://www.w3.org/2000/svg" id="mdi-apple-keyboard-command" viewBox="0 0 24 24"><path d="M6,2A4,4 0 0,1 10,6V8H14V6A4,4 0 0,1 18,2A4,4 0 0,1 22,6A4,4 0 0,1 18,10H16V14H18A4,4 0 0,1 22,18A4,4 0 0,1 18,22A4,4 0 0,1 14,18V16H10V18A4,4 0 0,1 6,22A4,4 0 0,1 2,18A4,4 0 0,1 6,14H8V10H6A4,4 0 0,1 2,6A4,4 0 0,1 6,2M16,18A2,2 0 0,0 18,20A2,2 0 0,0 20,18A2,2 0 0,0 18,16H16V18M14,10H10V14H14V10M6,16A2,2 0 0,0 4,18A2,2 0 0,0 6,20A2,2 0 0,0 8,18V16H6M8,6A2,2 0 0,0 6,4A2,2 0 0,0 4,6A2,2 0 0,0 6,8H8V6M18,8A2,2 0 0,0 20,6A2,2 0 0,0 18,4A2,2 0 0,0 16,6V8H18Z" /></svg>
</svg>
<svg id="mdi:apple-keyboard-control">
<svg xmlns="http://www.w3.org/2000/svg" id="mdi-apple-keyboard-control" viewBox="0 0 24 24"><path d="M19.78,11.78L18.36,13.19L12,6.83L5.64,13.19L4.22,11.78L12,4L19.78,11.78Z" /></svg>
</svg>
<svg id="mdi:apple-keyboard-option">
<svg xmlns="http://www.w3.org/2000/svg" id="mdi-apple-keyboard-option" viewBox="0 0 24 24"><path d="M3,4H9.11L16.15,18H21V20H14.88L7.84,6H3V4M14,4H21V6H14V4Z" /></svg>
</svg>
<svg id="mdi:apple-keyboard-shift">
<svg xmlns="http://www.w3.org/2000/svg" id="mdi-apple-keyboard-shift" viewBox="0 0 24 24"><path d="M15,18V12H17.17L12,6.83L6.83,12H9V18H15M12,4L22,14H17V20H7V14H2L12,4Z" /></svg>
</svg>
<svg id="mdi:arrow-down">
<svg xmlns="http://www.w3.org/2000/svg" id="mdi-arrow-down" viewBox="0 0 24 24"><path d="M11,4H13V16L18.5,10.5L19.92,11.92L12,19.84L4.08,11.92L5.5,10.5L11,16V4Z" /></svg>
</svg>
<svg id="mdi:arrow-down-thick">
<svg xmlns="http://www.w3.org/2000/svg" id="mdi-arrow-down-thick" viewBox="0 0 24 24"><path d="M10,4H14V13L17.5,9.5L19.92,11.92L12,19.84L4.08,11.92L6.5,9.5L10,13V4Z" /></svg>
</svg>
<svg id="mdi:arrow-left">
<svg xmlns="http://www.w3.org/2000/svg" id="mdi-arrow-left" viewBox="0 0 24 24"><path d="M20,11V13H8L13.5,18.5L12.08,19.92L4.16,12L12.08,4.08L13.5,5.5L8,11H20Z" /></svg>
</svg>
<svg id="mdi:arrow-right">
<svg xmlns="http://www.w3.org/2000/svg" id="mdi-arrow-right" viewBox="0 0 24 24"><path d="M4,11V13H16L10.5,18.5L11.92,19.92L19.84,12L11.92,4.08L10.5,5.5L16,11H4Z" /></svg>
</svg>
<svg id="mdi:arrow-up">
<svg xmlns="http://www.w3.org/2000/svg" id="mdi-arrow-up" viewBox="0 0 24 24"><path d="M13,20H11V8L5.5,13.5L4.08,12.08L12,4.16L19.92,12.08L18.5,13.5L13,8V20Z" /></svg>
</svg>
<svg id="mdi:arrow-up-thick">
<svg xmlns="http://www.w3.org/2000/svg" id="mdi-arrow-up-thick" viewBox="0 0 24 24"><path d="M14,20H10V11L6.5,14.5L4.08,12.08L12,4.16L19.92,12.08L17.5,14.5L14,11V20Z" /></svg>
</svg>
<svg id="mdi:backspace">
<svg xmlns="http://www.w3.org/2000/svg" id="mdi-backspace" viewBox="0 0 24 24"><path d="M22,3H7C6.31,3 5.77,3.35 5.41,3.88L0,12L5.41,20.11C5.77,20.64 6.31,21 7,21H22A2,2 0 0,0 24,19V5A2,2 0 0,0 22,3M19,15.59L17.59,17L14,13.41L10.41,17L9,15.59L12.59,12L9,8.41L10.41,7L14,10.59L17.59,7L19,8.41L15.41,12" /></svg>
</svg>
<svg id="mdi:circle-small">
<svg xmlns="http://www.w3.org/2000/svg" id="mdi-circle-small" viewBox="0 0 24 24"><path d="M12,10A2,2 0 0,0 10,12C10,13.11 10.9,14 12,14C13.11,14 14,13.11 14,12A2,2 0 0,0 12,10Z" /></svg>
</svg>
<svg id="mdi:home">
<svg xmlns="http://www.w3.org/2000/svg" id="mdi-home" viewBox="0 0 24 24"><path d="M10,20V14H14V20H19V12H22L12,3L2,12H5V20H10Z" /></svg>
</svg>
<svg id="mdi:keyboard-return">
<svg xmlns="http://www.w3.org/2000/svg" id="mdi-keyboard-return" viewBox="0 0 24 24"><path d="M19,7V11H5.83L9.41,7.41L8,6L2,12L8,18L9.41,16.58L5.83,13H21V7H19Z" /></svg>
</svg>
<svg id="mdi:keyboard-space">
<svg xmlns="http://www.w3.org/2000/svg" id="mdi-keyboard-space" viewBox="0 0 24 24"><path d="M3 15H5V19H19V15H21V19C21 20.1 20.1 21 19 21H5C3.9 21 3 20.1 3 19V15Z" /></svg>
</svg>
<svg id="mdi:movie-open-off">
<svg xmlns="http://www.w3.org/2000/svg" id="mdi-movie-open-off" viewBox="0 0 24 24"><path d="M13.2 10H22V18.8L13.2 10M21.6 6.1L20.8 2.2L16.9 3L19.6 6.5L21.6 6.1M11.8 8L9.1 4.5L7.9 4.7L11.3 8.1L11.8 8M2.4 1.7L1.1 3L3.7 5.6L3.2 5.7C2.1 5.9 1.4 7 1.6 8L2 10L7.1 9L8.1 10H2V20C2 21.1 2.9 22 4 22H20.1L20.8 22.7L22.1 21.4L2.4 1.7M16.7 7.1L14 3.5L12 3.9L14.8 7.4L16.7 7.1Z" /></svg>
</svg>
<svg id="mdi:volume-high">
<svg xmlns="http://www.w3.org/2000/svg" id="mdi-volume-high" viewBox="0 0 24 24"><path d="M14,3.23V5.29C16.89,6.15 19,8.83 19,12C19,15.17 16.89,17.84 14,18.7V20.77C18,19.86 21,16.28 21,12C21,7.72 18,4.14 14,3.23M16.5,12C16.5,10.23 15.5,8.71 14,7.97V16C15.5,15.29 16.5,13.76 16.5,12M3,9V15H7L12,20V4L7,9H3Z" /></svg>
</svg>
<svg id="mdi:volume-low">
<svg xmlns="http://www.w3.org/2000/svg" id="mdi-volume-low" viewBox="0 0 24 24"><path d="M7,9V15H11L16,20V4L11,9H7Z" /></svg>
</svg>
<svg id="mdi:volume-off">
<svg xmlns="http://www.w3.org/2000/svg" id="mdi-volume-off" viewBox="0 0 24 24"><path d="M12,4L9.91,6.09L12,8.18M4.27,3L3,4.27L7.73,9H3V15H7L12,20V13.27L16.25,17.53C15.58,18.04 14.83,18.46 14,18.7V20.77C15.38,20.45 16.63,19.82 17.68,18.96L19.73,21L21,19.73L12,10.73M19,12C19,12.94 18.8,13.82 18.46,14.64L19.97,16.15C20.62,14.91 21,13.5 21,12C21,7.72 18,4.14 14,3.23V5.29C16.89,6.15 19,8.83 19,12M16.5,12C16.5,10.23 15.5,8.71 14,7.97V10.18L16.45,12.63C16.5,12.43 16.5,12.21 16.5,12Z" /></svg>
</svg>
</defs>/* end glyphs */
<style>/* inherit to force styles through use tags */
svg path {
    fill: inherit;
}

/* font and background color specifications */
svg.keymap {
    font-family: SFMono-Regular,Consolas,Liberation Mono,Menlo,monospace;
    font-size: 14px;
    font-kerning: normal;
    text-rendering: optimizeLegibility;
    fill: #24292e;
}

/* default key styling */
rect.key {
    fill: #f6f8fa;
}

rect.key, rect.combo {
    stroke: #c9cccf;
    stroke-width: 1;
}

/* default key side styling, only used is draw_key_sides is set */
rect.side {
    filter: brightness(90%);
}

/* color accent for combo boxes */
rect.combo, rect.combo-separate {
    fill: #cdf;
}

/* color accent for held keys */
rect.held, rect.combo.held {
    fill: #fdd;
}

/* color accent for ghost (optional) keys */
rect.ghost, rect.combo.ghost {
    stroke-dasharray: 4, 4;
    stroke-width: 2;
}

text {
    text-anchor: middle;
    dominant-baseline: middle;
}

/* styling for layer labels */
text.label {
    font-weight: bold;
    text-anchor: start;
    stroke: white;
    stroke-width: 4;
    paint-order: stroke;
}

/* styling for optional footer */
text.footer {
    text-anchor: end;
    dominant-baseline: auto;
    stroke: white;
    stroke-width: 4;
    paint-order: stroke;
}

/* styling for combo tap, and key non-tap label text */
text.combo, text.hold, text.shifted, text.left, text.right {
    font-size: 11px;
}

text.hold {
    text-anchor: middle;
    dominant-baseline: auto;
}

text.shifted {
    text-anchor: middle;
    dominant-baseline: hanging;
}

text.left {
    text-anchor: start;
}

text.right {
    text-anchor: end;
}

text.layer-activator {
    text-decoration: underline;
}

/* styling for hold/shifted label text in combo box */
text.combo.hold, text.combo.shifted, text.combo.left, text.combo.right {
    font-size: 8px;
}

/* lighter symbol for transparent keys */
text.trans {
    fill: #7b7e81;
}

/* styling for combo dendrons */
path.combo {
    stroke-width: 1;
    stroke: gray;
    fill: none;
}

/* Start Tabler Icons Cleanup */
/* cannot use height/width with glyphs */
.icon-tabler > path {
    fill: inherit;
    stroke: inherit;
    stroke-width: 2;
}
/* hide tabler's default box */
.icon-tabler > path[stroke="none"][fill="none"] {
    visibility: hidden;
}
/* End Tabler Icons Cleanup */
</style>
<g transform="translate(30, 0)" class="layer-caster">
<text x="0" y="28" class="label" id="caster">caster:</text>
<g transform="translate(0, 56)">
<g transform="translate(28, 76)" class="key keypos-0">
<rect rx="6" ry="6" x="-26" y="-26" width="52" height="52" class="key"/>
<text x="0" y="0" class="key tap">B</text>
</g>
<g transform="translate(95, 43) rotate(5.0)" class="key keypos-1">
<rect rx="6" ry="6" x="-26" y="-26" width="52" height="52" class="key"/>
<text x="0" y="0" class="key tap">F</text>
</g>
<g transform="translate(164, 32) rotate(10.0)" class="key keypos-2">
<rect rx="6" ry="6" x="-26" y="-26" width="52" height="52" class="key"/>
<text x="0" y="0" class="key tap">D</text>
</g>
<g transform="translate(216, 60) rotate(10.0)" class="key keypos-3">
<rect rx="6" ry="6" x="-26" y="-26" width="52" height="52" class="key"/>
<text x="0" y="0" class="key tap">L</text>
</g>
<g transform="translate(480, 60) rotate(-10.0)" class="key keypos-4">
<rect rx="6" ry="6" x="-26" y="-26" width="52" height="52" class="key"/>
<text x="0" y="0" class="key tap">P</text>
</g>
<g transform="translate(533, 32) rotate(-10.0)" class="key keypos-5">
<rect rx="6" ry="6" x="-26" y="-26" width="52" height="52" class="key"/>
<text x="0" y="0" class="key tap">O</text>
</g>
<g transform="translate(601, 43) rotate(-5.0)" class="key keypos-6">
<rect rx="6" ry="6" x="-26" y="-26" width="52" height="52" class="key"/>
<text x="0" y="0" class="key tap">U</text>
</g>
<g transform="translate(669, 76)" class="key keypos-7">
<rect rx="6" ry="6" x="-26" y="-26" width="52" height="52" class="key"/>
<text x="0" y="0" class="key tap">Y</text>
</g>
<g transform="translate(28, 132)" class="key keypos-8">
<rect rx="6" ry="6" x="-26" y="-26" width="52" height="52" class="key"/>
<text x="0" y="0" class="key tap">C</text>
<use href="#mdi:apple-keyboard-control" xlink:href="#mdi:apple-keyboard-control" x="-6" y="12" height="12" width="12.0" class="key hold glyph mdi:apple-keyboard-control"/>
</g>
<g transform="translate(91, 99) rotate(5.0)" class="key keypos-9">
<rect rx="6" ry="6" x="-26" y="-26" width="52" height="52" class="key"/>
<text x="0" y="0" class="key tap">S</text>
<use href="#mdi:apple-keyboard-option" xlink:href="#mdi:apple-keyboard-option" x="-6" y="12" height="12" width="12.0" class="key hold glyph mdi:apple-keyboard-option"/>
</g>
<g transform="translate(155, 88) rotate(10.0)" class="key keypos-10">
<rect rx="6" ry="6" x="-26" y="-26" width="52" height="52" class="key"/>
<text x="0" y="0" class="key tap">T</text>
<use href="#mdi:apple-keyboard-command" xlink:href="#mdi:apple-keyboard-command" x="-6" y="12" height="12" width="12.0" class="key hold glyph mdi:apple-keyboard-command"/>
</g>
<g transform="translate(207, 115) rotate(10.0)" class="key keypos-11">
<rect rx="6" ry="6" x="-26" y="-26" width="52" height="52" class="key"/>
<text x="0" y="0" class="key tap">R</text>
<use href="#mdi:apple-keyboard-shift" xlink:href="#mdi:apple-keyboard-shift" x="-6" y="12" height="12" width="12.0" class="key hold glyph mdi:apple-keyboard-shift"/>
</g>
<g transform="translate(489, 115) rotate(-10.0)" class="key keypos-12">
<rect rx="6" ry="6" x="-26" y="-26" width="52" height="52" class="key"/>
<text x="0" y="0" class="key tap">N</text>
<use href="#mdi:apple-keyboard-shift" xlink:href="#mdi:apple-keyboard-shift" x="-6" y="12" height="12" width="12.0" class="key hold glyph mdi:apple-keyboard-shift"/>
</g>
<g transform="translate(542, 88) rotate(-10.0)" class="key keypos-13">
<rect rx="6" ry="6" x="-26" y="-26" width="52" height="52" class="key"/>
<text x="0" y="0" class="key tap">A</text>
<use href="#mdi:apple-keyboard-command" xlink:href="#mdi:apple-keyboard-command" x="-6" y="12" height="12" width="12.0" class="key hold glyph mdi:apple-keyboard-command"/>
</g>
<g transform="translate(606, 99) rotate(-5.0)" class="key keypos-14">
<rect rx="6" ry="6" x="-26" y="-26" width="52" height="52" class="key"/>
<text x="0" y="0" class="key tap">I</text>
<use href="#mdi:apple-keyboard-option" xlink:href="#mdi:apple-keyboard-option" x="-6" y="12" height="12" width="12.0" class="key hold glyph mdi:apple-keyboard-option"/>
</g>
<g transform="translate(669, 132)" class="key keypos-15">
<rect rx="6" ry="6" x="-26" y="-26" width="52" height="52" class="key"/>
<text x="0" y="0" class="key tap">H</text>
<use href="#mdi:apple-keyboard-control" xlink:href="#mdi:apple-keyboard-control" x="-6" y="12" height="12" width="12.0" class="key hold glyph mdi:apple-keyboard-control"/>
</g>
<g transform="translate(28, 188)" class="key keypos-16">
<rect rx="6" ry="6" x="-26" y="-26" width="52" height="52" class="key"/>
<text x="0" y="0" class="key tap">V</text>
</g>
<g transform="translate(86, 155) rotate(5.0)" class="key keypos-17">
<rect rx="6" ry="6" x="-26" y="-26" width="52" height="52" class="key"/>
<text x="0" y="0" class="key tap">G</text>
</g>
<g transform="translate(146, 143) rotate(10.0)" class="key keypos-18">
<rect rx="6" ry="6" x="-26" y="-26" width="52" height="52" class="key"/>
<text x="0" y="0" class="key tap">M</text>
</g>
<g transform="translate(198, 171) rotate(10.0)" class="key keypos-19">
<rect rx="6" ry="6" x="-26" y="-26" width="52" height="52" class="key"/>
<text x="0" y="0" class="key tap">W</text>
</g>
<g transform="translate(498, 171) rotate(-10.0)" class="key keypos-20">
<rect rx="6" ry="6" x="-26" y="-26" width="52" height="52" class="key"/>
<text x="0" y="0" class="key tap">.</text>
</g>
<g transform="translate(551, 143) rotate(-10.0)" class="key keypos-21">
<rect rx="6" ry="6" x="-26" y="-26" width="52" height="52" class="key"/>
<text x="0" y="0" class="key tap">,</text>
</g>
<g transform="translate(610, 155) rotate(-5.0)" class="key keypos-22">
<rect rx="6" ry="6" x="-26" y="-26" width="52" height="52" class="key"/>
<text x="0" y="0" class="key tap">&#x27;</text>
</g>
<g transform="translate(669, 188)" class="key keypos-23">
<rect rx="6" ry="6" x="-26" y="-26" width="52" height="52" class="key"/>
<use href="#mdi:apple-keyboard-shift" xlink:href="#mdi:apple-keyboard-shift" x="-7" y="-7" height="14" width="14.0" class="key tap glyph mdi:apple-keyboard-shift"/>
<use href="#mdi:circle-small" xlink:href="#mdi:circle-small" x="-6" y="12" height="12" width="12.0" class="key hold glyph mdi:circle-small"/>
</g>
<g transform="translate(173, 235) rotate(25.0)" class="key keypos-24">
<rect rx="6" ry="6" x="-26" y="-26" width="52" height="52" class="key"/>
<use href="#mdi:backspace" xlink:href="#mdi:backspace" x="-7" y="-7" height="14" width="14.0" class="key tap glyph mdi:backspace"/>
<a href="#function">
<text x="0" y="24" class="key hold layer-activator"><tspan style="font-size: 88%">function</tspan></text>
</a></g>
<g transform="translate(226, 270) rotate(40.0)" class="key keypos-25">
<rect rx="6" ry="6" x="-26" y="-26" width="52" height="52" class="key"/>
<use href="#mdi:keyboard-space" xlink:href="#mdi:keyboard-space" x="-7" y="-7" height="14" width="14.0" class="key tap glyph mdi:keyboard-space"/>
<a href="#numbnav">
<text x="0" y="24" class="key hold layer-activator">numbnav</text>
</a></g>
<g transform="translate(471, 270) rotate(-40.0)" class="key keypos-26">
<rect rx="6" ry="6" x="-26" y="-26" width="52" height="52" class="key"/>
<text x="0" y="0" class="key tap">E</text>
</g>
<g transform="translate(524, 235) rotate(-25.0)" class="key keypos-27">
<rect rx="6" ry="6" x="-26" y="-26" width="52" height="52" class="key"/>
<use href="#mdi:keyboard-return" xlink:href="#mdi:keyboard-return" x="-7" y="-7" height="14" width="14.0" class="key tap glyph mdi:keyboard-return"/>
</g>
</g>
</g>
<g transform="translate(30, 366)" class="layer-numbnav">
<text x="0" y="28" class="label" id="numbnav">numbnav:</text>
<g transform="translate(0, 56)">
<g transform="translate(28, 76)" class="key keypos-0">
<rect rx="6" ry="6" x="-26" y="-26" width="52" height="52" class="key"/>
<use href="#mdi:keyboard-return" xlink:href="#mdi:keyboard-return" x="-7" y="-7" height="14" width="14.0" class="key tap glyph mdi:keyboard-return"/>
</g>
<g transform="translate(95, 43) rotate(5.0)" class="key keypad keypos-1">
<rect rx="6" ry="6" x="-26" y="-26" width="52" height="52" class="key keypad"/>
<text x="0" y="0" class="key keypad tap">7</text>
</g>
<g transform="translate(164, 32) rotate(10.0)" class="key keypad keypos-2">
<rect rx="6" ry="6" x="-26" y="-26" width="52" height="52" class="key keypad"/>
<text x="0" y="0" class="key keypad tap">8</text>
</g>
<g transform="translate(216, 60) rotate(10.0)" class="key keypad keypos-3">
<rect rx="6" ry="6" x="-26" y="-26" width="52" height="52" class="key keypad"/>
<text x="0" y="0" class="key keypad tap">9</text>
</g>
<g transform="translate(480, 60) rotate(-10.0)" class="key keypos-4">
<rect rx="6" ry="6" x="-26" y="-26" width="52" height="52" class="key"/>
<use href="#mdi:volume-low" xlink:href="#mdi:volume-low" x="-7" y="-7" height="14" width="14.0" class="key tap glyph mdi:volume-low"/>
</g>
<g transform="translate(533, 32) rotate(-10.0)" class="key keypos-5">
<rect rx="6" ry="6" x="-26" y="-26" width="52" height="52" class="key"/>
<use href="#mdi:volume-off" xlink:href="#mdi:volume-off" x="-7" y="-7" height="14" width="14.0" class="key tap glyph mdi:volume-off"/>
</g>
<g transform="translate(601, 43) rotate(-5.0)" class="key keypos-6">
<rect rx="6" ry="6" x="-26" y="-26" width="52" height="52" class="key"/>
<use href="#mdi:volume-high" xlink:href="#mdi:volume-high" x="-7" y="-7" height="14" width="14.0" class="key tap glyph mdi:volume-high"/>
</g>
<g transform="translate(669, 76)" class="key keypos-7">
<rect rx="6" ry="6" x="-26" y="-26" width="52" height="52" class="key"/>
</g>
<g transform="translate(28, 132)" class="key keypad keypos-8">
<rect rx="6" ry="6" x="-26" y="-26" width="52" height="52" class="key keypad"/>
<text x="0" y="0" class="key keypad tap">0</text>
</g>
<g transform="translate(91, 99) rotate(5.0)" class="key keypad keypos-9">
<rect rx="6" ry="6" x="-26" y="-26" width="52" height="52" class="key keypad"/>
<text x="0" y="0" class="key keypad tap">4</text>
</g>
<g transform="translate(155, 88) rotate(10.0)" class="key keypad keypos-10">
<rect rx="6" ry="6" x="-26" y="-26" width="52" height="52" class="key keypad"/>
<text x="0" y="0" class="key keypad tap">5</text>
</g>
<g transform="translate(207, 115) rotate(10.0)" class="key keypad keypos-11">
<rect rx="6" ry="6" x="-26" y="-26" width="52" height="52" class="key keypad"/>
<text x="0" y="0" class="key keypad tap">6</text>
</g>
<g transform="translate(489, 115) rotate(-10.0)" class="key keypos-12">
<rect rx="6" ry="6" x="-26" y="-26" width="52" height="52" class="key"/>
<use href="#mdi:arrow-left" xlink:href="#mdi:arrow-left" x="-7" y="-7" height="14" width="14.0" class="key tap glyph mdi:arrow-left"/>
</g>
<g transform="translate(542, 88) rotate(-10.0)" class="key keypos-13">
<rect rx="6" ry="6" x="-26" y="-26" width="52" height="52" class="key"/>
<use href="#mdi:arrow-down" xlink:href="#mdi:arrow-down" x="-7" y="-7" height="14" width="14.0" class="key tap glyph mdi:arrow-down"/>
</g>
<g transform="translate(606, 99) rotate(-5.0)" class="key keypos-14">
<rect rx="6" ry="6" x="-26" y="-26" width="52" height="52" class="key"/>
<use href="#mdi:arrow-up" xlink:href="#mdi:arrow-up" x="-7" y="-7" height="14" width="14.0" class="key tap glyph mdi:arrow-up"/>
</g>
<g transform="translate(669, 132)" class="key keypos-15">
<rect rx="6" ry="6" x="-26" y="-26" width="52" height="52" class="key"/>
<use href="#mdi:arrow-right" xlink:href="#mdi:arrow-right" x="-7" y="-7" height="14" width="14.0" class="key tap glyph mdi:arrow-right"/>
</g>
<g transform="translate(28, 188)" class="key keypos-16">
<rect rx="6" ry="6" x="-26" y="-26" width="52" height="52" class="key"/>
<text x="0" y="0" class="key tap">.</text>
</g>
<g transform="translate(86, 155) rotate(5.0)" class="key keypad keypos-17">
<rect rx="6" ry="6" x="-26" y="-26" width="52" height="52" class="key keypad"/>
<text x="0" y="0" class="key keypad tap">1</text>
</g>
<g transform="translate(146, 143) rotate(10.0)" class="key keypad keypos-18">
<rect rx="6" ry="6" x="-26" y="-26" width="52" height="52" class="key keypad"/>
<text x="0" y="0" class="key keypad tap">2</text>
</g>
<g transform="translate(198, 171) rotate(10.0)" class="key keypad keypos-19">
<rect rx="6" ry="6" x="-26" y="-26" width="52" height="52" class="key keypad"/>
<text x="0" y="0" class="key keypad tap">3</text>
</g>
<g transform="translate(498, 171) rotate(-10.0)" class="key keypos-20">
<rect rx="6" ry="6" x="-26" y="-26" width="52" height="52" class="key"/>
<use href="#mdi:home" xlink:href="#mdi:home" x="-7" y="-7" height="14" width="14.0" class="key tap glyph mdi:home"/>
</g>
<g transform="translate(551, 143) rotate(-10.0)" class="key keypos-21">
<rect rx="6" ry="6" x="-26" y="-26" width="52" height="52" class="key"/>
<use href="#mdi:arrow-down-thick" xlink:href="#mdi:arrow-down-thick" x="-7" y="-7" height="14" width="14.0" class="key tap glyph mdi:arrow-down-thick"/>
</g>
<g transform="translate(610, 155) rotate(-5.0)" class="key keypos-22">
<rect rx="6" ry="6" x="-26" y="-26" width="52" height="52" class="key"/>
<use href="#mdi:arrow-up-thick" xlink:href="#mdi:arrow-up-thick" x="-7" y="-7" height="14" width="14.0" class="key tap glyph mdi:arrow-up-thick"/>
</g>
<g transform="translate(669, 188)" class="key keypos-23">
<rect rx="6" ry="6" x="-26" y="-26" width="52" height="52" class="key"/>
<use href="#mdi:movie-open-off" xlink:href="#mdi:movie-open-off" x="-7" y="-7" height="14" width="14.0" class="key tap glyph mdi:movie-open-off"/>
</g>
<g transform="translate(173, 235) rotate(25.0)" class="key keypos-24">
<rect rx="6" ry="6" x="-26" y="-26" width="52" height="52" class="key"/>
</g>
<g transform="translate(226, 270) rotate(40.0)" class="key held keypos-25">
<rect rx="6" ry="6" x="-26" y="-26" width="52" height="52" class="key held"/>
</g>
<g transform="translate(471, 270) rotate(-40.0)" class="key keypos-26">
<rect rx="6" ry="6" x="-26" y="-26" width="52" height="52" class="key"/>
</g>
<g transform="translate(524, 235) rotate(-25.0)" class="key keypos-27">
<rect rx="6" ry="6" x="-26" y="-26" width="52" height="52" class="key"/>
</g>
</g>
</g>
<g transform="translate(30, 732)" class="layer-function">
<text x="0" y="28" class="label" id="function">function:</text>
<g transform="translate(0, 56)">
<g transform="translate(28, 76)" class="key keypos-0">
<rect rx="6" ry="6" x="-26" y="-26" width="52" height="52" class="key"/>
<text x="0" y="0" class="key tap">F12</text>
</g>
<g transform="translate(95, 43) rotate(5.0)" class="key keypos-1">
<rect rx="6" ry="6" x="-26" y="-26" width="52" height="52" class="key"/>
<text x="0" y="0" class="key tap">F7</text>
</g>
<g transform="translate(164, 32) rotate(10.0)" class="key keypos-2">
<rect rx="6" ry="6" x="-26" y="-26" width="52" height="52" class="key"/>
<text x="0" y="0" class="key tap">F8</text>
</g>
<g transform="translate(216, 60) rotate(10.0)" class="key keypos-3">
<rect rx="6" ry="6" x="-26" y="-26" width="52" height="52" class="key"/>
<text x="0" y="0" class="key tap">F9</text>
</g>
<g transform="translate(480, 60) rotate(-10.0)" class="key keypos-4">
<rect rx="6" ry="6" x="-26" y="-26" width="52" height="52" class="key"/>
</g>
<g transform="translate(533, 32) rotate(-10.0)" class="key keypos-5">
<rect rx="6" ry="6" x="-26" y="-26" width="52" height="52" class="key"/>
</g>
<g transform="translate(601, 43) rotate(-5.0)" class="key keypos-6">
<rect rx="6" ry="6" x="-26" y="-26" width="52" height="52" class="key"/>
</g>
<g transform="translate(669, 76)" class="key keypos-7">
<rect rx="6" ry="6" x="-26" y="-26" width="52" height="52" class="key"/>
</g>
<g transform="translate(28, 132)" class="key keypos-8">
<rect rx="6" ry="6" x="-26" y="-26" width="52" height="52" class="key"/>
<text x="0" y="0" class="key tap">F11</text>
</g>
<g transform="translate(91, 99) rotate(5.0)" class="key keypos-9">
<rect rx="6" ry="6" x="-26" y="-26" width="52" height="52" class="key"/>
<text x="0" y="0" class="key tap">F4</text>
</g>
<g transform="translate(155, 88) rotate(10.0)" class="key keypos-10">
<rect rx="6" ry="6" x="-26" y="-26" width="52" height="52" class="key"/>
<text x="0" y="0" class="key tap">F5</text>
</g>
<g transform="translate(207, 115) rotate(10.0)" class="key keypos-11">
<rect rx="6" ry="6" x="-26" y="-26" width="52" height="52" class="key"/>
<text x="0" y="0" class="key tap">F6</text>
</g>
<g transform="translate(489, 115) rotate(-10.0)" class="key keypos-12">
<rect rx="6" ry="6" x="-26" y="-26" width="52" height="52" class="key"/>
</g>
<g transform="translate(542, 88) rotate(-10.0)" class="key keypos-13">
<rect rx="6" ry="6" x="-26" y="-26" width="52" height="52" class="key"/>
</g>
<g transform="translate(606, 99) rotate(-5.0)" class="key keypos-14">
<rect rx="6" ry="6" x="-26" y="-26" width="52" height="52" class="key"/>
</g>
<g transform="translate(669, 132)" class="key keypos-15">
<rect rx="6" ry="6" x="-26" y="-26" width="52" height="52" class="key"/>
</g>
<g transform="translate(28, 188)" class="key keypos-16">
<rect rx="6" ry="6" x="-26" y="-26" width="52" height="52" class="key"/>
<text x="0" y="0" class="key tap">F10</text>
</g>
<g transform="translate(86, 155) rotate(5.0)" class="key keypos-17">
<rect rx="6" ry="6" x="-26" y="-26" width="52" height="52" class="key"/>
<text x="0" y="0" class="key tap">F1</text>
</g>
<g transform="translate(146, 143) rotate(10.0)" class="key keypos-18">
<rect rx="6" ry="6" x="-26" y="-26" width="52" height="52" class="key"/>
<text x="0" y="0" class="key tap">F2</text>
</g>
<g transform="translate(198, 171) rotate(10.0)" class="key keypos-19">
<rect rx="6" ry="6" x="-26" y="-26" width="52" height="52" class="key"/>
<text x="0" y="0" class="key tap">F3</text>
</g>
<g transform="translate(498, 171) rotate(-10.0)" class="key keypos-20">
<rect rx="6" ry="6" x="-26" y="-26" width="52" height="52" class="key"/>
</g>
<g transform="translate(551, 143) rotate(-10.0)" class="key keypos-21">
<rect rx="6" ry="6" x="-26" y="-26" width="52" height="52" class="key"/>
</g>
<g transform="translate(610, 155) rotate(-5.0)" class="key keypos-22">
<rect rx="6" ry="6" x="-26" y="-26" width="52" height="52" class="key"/>
</g>
<g transform="translate(669, 188)" class="key keypos-23">
<rect rx="6" ry="6" x="-26" y="-26" width="52" height="52" class="key"/>
</g>
<g transform="translate(173, 235) rotate(25.0)" class="key held keypos-24">
<rect rx="6" ry="6" x="-26" y="-26" width="52" height="52" class="key held"/>
</g>
<g transform="translate(226, 270) rotate(40.0)" class="key keypos-25">
<rect rx="6" ry="6" x="-26" y="-26" width="52" height="52" class="key"/>
</g>
<g transform="translate(471, 270) rotate(-40.0)" class="key keypos-26">
<rect rx="6" ry="6" x="-26" y="-26" width="52" height="52" class="key"/>
</g>
<g transform="translate(524, 235) rotate(-25.0)" class="key keypos-27">
<rect rx="6" ry="6" x="-26" y="-26" width="52" height="52" class="key"/>
</g>
</g>
</g>
<g transform="translate(30, 1098)" class="layer-upsidedown">
<text x="0" y="28" class="label" id="upsidedown">upsidedown:</text>
<g transform="translate(0, 56)">
<g transform="translate(28, 76)" class="key keypos-0">
<rect rx="6" ry="6" x="-26" y="-26" width="52" height="52" class="key"/>
<text x="0" y="0" class="key tap">Y</text>
</g>
<g transform="translate(95, 43) rotate(5.0)" class="key keypos-1">
<rect rx="6" ry="6" x="-26" y="-26" width="52" height="52" class="key"/>
<text x="0" y="0" class="key tap">U</text>
</g>
<g transform="translate(164, 32) rotate(10.0)" class="key keypos-2">
<rect rx="6" ry="6" x="-26" y="-26" width="52" height="52" class="key"/>
<text x="0" y="0" class="key tap">O</text>
</g>
<g transform="translate(216, 60) rotate(10.0)" class="key keypos-3">
<rect rx="6" ry="6" x="-26" y="-26" width="52" height="52" class="key"/>
<text x="0" y="0" class="key tap">P</text>
</g>
<g transform="translate(480, 60) rotate(-10.0)" class="key keypos-4">
<rect rx="6" ry="6" x="-26" y="-26" width="52" height="52" class="key"/>
<text x="0" y="0" class="key tap">L</text>
</g>
<g transform="translate(533, 32) rotate(-10.0)" class="key keypos-5">
<rect rx="6" ry="6" x="-26" y="-26" width="52" height="52" class="key"/>
<text x="0" y="0" class="key tap">D</text>
</g>
<g transform="translate(601, 43) rotate(-5.0)" class="key keypos-6">
<rect rx="6" ry="6" x="-26" y="-26" width="52" height="52" class="key"/>
<text x="0" y="0" class="key tap">F</text>
</g>
<g transform="translate(669, 76)" class="key keypos-7">
<rect rx="6" ry="6" x="-26" y="-26" width="52" height="52" class="key"/>
<text x="0" y="0" class="key tap">B</text>
</g>
<g transform="translate(28, 132)" class="key keypos-8">
<rect rx="6" ry="6" x="-26" y="-26" width="52" height="52" class="key"/>
<text x="0" y="0" class="key tap">H</text>
<use href="#mdi:apple-keyboard-control" xlink:href="#mdi:apple-keyboard-control" x="-6" y="12" height="12" width="12.0" class="key hold glyph mdi:apple-keyboard-control"/>
</g>
<g transform="translate(91, 99) rotate(5.0)" class="key keypos-9">
<rect rx="6" ry="6" x="-26" y="-26" width="52" height="52" class="key"/>
<text x="0" y="0" class="key tap">I</text>
<use href="#mdi:apple-keyboard-option" xlink:href="#mdi:apple-keyboard-option" x="-6" y="12" height="12" width="12.0" class="key hold glyph mdi:apple-keyboard-option"/>
</g>
<g transform="translate(155, 88) rotate(10.0)" class="key keypos-10">
<rect rx="6" ry="6" x="-26" y="-26" width="52" height="52" class="key"/>
<text x="0" y="0" class="key tap">A</text>
<use href="#mdi:apple-keyboard-command" xlink:href="#mdi:apple-keyboard-command" x="-6" y="12" height="12" width="12.0" class="key hold glyph mdi:apple-keyboard-command"/>
</g>
<g transform="translate(207, 115) rotate(10.0)" class="key keypos-11">
<rect rx="6" ry="6" x="-26" y="-26" width="52" height="52" class="key"/>
<text x="0" y="0" class="key tap">N</text>
<use href="#mdi:apple-keyboard-shift" xlink:href="#mdi:apple-keyboard-shift" x="-6" y="12" height="12" width="12.0" class="key hold glyph mdi:apple-keyboard-shift"/>
</g>
<g transform="translate(489, 115) rotate(-10.0)" class="key keypos-12">
<rect rx="6" ry="6" x="-26" y="-26" width="52" height="52" class="key"/>
<text x="0" y="0" class="key tap">R</text>
<use href="#mdi:apple-keyboard-shift" xlink:href="#mdi:apple-keyboard-shift" x="-6" y="12" height="12" width="12.0" class="key hold glyph mdi:apple-keyboard-shift"/>
</g>
<g transform="translate(542, 88) rotate(-10.0)" class="key keypos-13">
<rect rx="6" ry="6" x="-26" y="-26" width="52" height="52" class="key"/>
<text x="0" y="0" class="key tap">T</text>
<use href="#mdi:apple-keyboard-command" xlink:href="#mdi:apple-keyboard-command" x="-6" y="12" height="12" width="12.0" class="key hold glyph mdi:apple-keyboard-command"/>
</g>
<g transform="translate(606, 99) rotate(-5.0)" class="key keypos-14">
<rect rx="6" ry="6" x="-26" y="-26" width="52" height="52" class="key"/>
<text x="0" y="0" class="key tap">S</text>
<use href="#mdi:apple-keyboard-option" xlink:href="#mdi:apple-keyboard-option" x="-6" y="12" height="12" width="12.0" class="key hold glyph mdi:apple-keyboard-option"/>
</g>
<g transform="translate(669, 132)" class="key keypos-15">
<rect rx="6" ry="6" x="-26" y="-26" width="52" height="52" class="key"/>
<text x="0" y="0" class="key tap">C</text>
<use href="#mdi:apple-keyboard-control" xlink:href="#mdi:apple-keyboard-control" x="-6" y="12" height="12" width="12.0" class="key hold glyph mdi:apple-keyboard-control"/>
</g>
<g transform="translate(28, 188)" class="key keypos-16">
<rect rx="6" ry="6" x="-26" y="-26" width="52" height="52" class="key"/>
<text x="0" y="0" class="key tap">K</text>
</g>
<g transform="translate(86, 155) rotate(5.0)" class="key keypos-17">
<rect rx="6" ry="6" x="-26" y="-26" width="52" height="52" class="key"/>
<text x="0" y="0" class="key tap">&#x27;</text>
</g>
<g transform="translate(146, 143) rotate(10.0)" class="key keypos-18">
<rect rx="6" ry="6" x="-26" y="-26" width="52" height="52" class="key"/>
<text x="0" y="0" class="key tap">,</text>
</g>
<g transform="translate(198, 171) rotate(10.0)" class="key keypos-19">
<rect rx="6" ry="6" x="-26" y="-26" width="52" height="52" class="key"/>
<text x="0" y="0" class="key tap">.</text>
</g>
<g transform="translate(498, 171) rotate(-10.0)" class="key keypos-20">
<rect rx="6" ry="6" x="-26" y="-26" width="52" height="52" class="key"/>
<text x="0" y="0" class="key tap">W</text>
</g>
<g transform="translate(551, 143) rotate(-10.0)" class="key keypos-21">
<rect rx="6" ry="6" x="-26" y="-26" width="52" height="52" class="key"/>
<text x="0" y="0" class="key tap">M</text>
</g>
<g transform="translate(610, 155) rotate(-5.0)" class="key keypos-22">
<rect rx="6" ry="6" x="-26" y="-26" width="52" height="52" class="key"/>
<text x="0" y="0" class="key tap">G</text>
</g>
<g transform="translate(669, 188)" class="key keypos-23">
<rect rx="6" ry="6" x="-26" y="-26" width="52" height="52" class="key"/>
<text x="0" y="0" class="key tap">V</text>
</g>
<g transform="translate(173, 235) rotate(25.0)" class="key keypos-24">
<rect rx="6" ry="6" x="-26" y="-26" width="52" height="52" class="key"/>
<use href="#mdi:keyboard-return" xlink:href="#mdi:keyboard-return" x="-7" y="-7" height="14" width="14.0" class="key tap glyph mdi:keyboard-return"/>
<a href="#function">
<text x="0" y="24" class="key hold layer-activator"><tspan style="font-size: 88%">function</tspan></text>
</a></g>
<g transform="translate(226, 270) rotate(40.0)" class="key keypos-25">
<rect rx="6" ry="6" x="-26" y="-26" width="52" height="52" class="key"/>
<text x="0" y="0" class="key tap">E</text>
<a href="#numbnav">
<text x="0" y="24" class="key hold layer-activator">numbnav</text>
</a></g>
<g transform="translate(471, 270) rotate(-40.0)" class="key keypos-26">
<rect rx="6" ry="6" x="-26" y="-26" width="52" height="52" class="key"/>
<use href="#mdi:keyboard-space" xlink:href="#mdi:keyboard-space" x="-7" y="-7" height="14" width="14.0" class="key tap glyph mdi:keyboard-space"/>
</g>
<g transform="translate(524, 235) rotate(-25.0)" class="key keypos-27">
<rect rx="6" ry="6" x="-26" y="-26" width="52" height="52" class="key"/>
<use href="#mdi:backspace" xlink:href="#mdi:backspace" x="-7" y="-7" height="14" width="14.0" class="key tap glyph mdi:backspace"/>
</g>
</g>
</g>
</svg>
